<svg width="64" height="64" viewBox="0 0 64 64" fill="none" xmlns="http://www.w3.org/2000/svg">
  <path
    d="M46.4605 29.2174C48.4508 30.9426 50.043 33.113 51.2372 35.673C52.4313 38.233 53 41.0157 53 43.9096C53 46.6922 52.4313 49.3635 51.3509 51.7565C50.2705 54.2052 48.792 56.32 46.9723 58.1009C45.1526 59.8818 42.9348 61.3287 40.4896 62.3861C37.9875 63.4435 35.3148 64 32.4716 64H18.8239H17.516C15.9237 63.6104 14.6158 62.7757 13.5922 61.5513C12.5118 60.327 12 58.88 12 57.3217V18.5322V18.3096C12 15.7496 12.5118 13.4122 13.4785 11.1304C14.4452 8.90435 15.81 6.95652 17.516 5.3426C19.2219 3.72869 21.2122 2.39304 23.4868 1.44695C25.7614 0.500865 28.2067 0 30.8225 0C33.4383 0 35.8835 0.500865 38.215 1.44695C40.5465 2.39304 42.5368 3.72869 44.2427 5.39826C45.9487 7.06783 47.3135 9.01566 48.2802 11.2974C49.2469 13.5791 49.7587 15.9722 49.7587 18.5322C49.7587 22.5391 48.6214 26.0452 46.4605 29.2174ZM30.8225 13.5791C29.4008 13.5791 28.2067 14.08 27.2399 15.0817C26.2732 16.0835 25.8183 17.2522 25.8183 18.5878V23.5965H30.8225C32.2441 23.5965 33.4383 23.0957 34.4619 22.1496C35.4286 21.2035 35.9404 19.9791 35.9404 18.5878C35.9404 17.2522 35.4286 16.0835 34.4619 15.0817C33.4383 14.08 32.2441 13.5791 30.8225 13.5791ZM32.5284 50.4209C34.4619 50.4209 36.0541 49.8087 37.362 48.5287C38.6699 47.2487 39.2954 45.7461 39.2954 43.9096C39.2954 42.0731 38.6699 40.5704 37.362 39.2904C36.0541 38.0104 34.4619 37.3983 32.5284 37.3983H25.8752V43.9096V50.4209H32.5284Z"
    fill="#EC5938" />
</svg>
